<?xml version="1.0" encoding="UTF-8" standalone="no"?>
<!-- Created with Inkscape (http://www.inkscape.org/) -->

<svg
   width="94.286751mm"
   height="78.640991mm"
   viewBox="0 0 94.28675 78.640991"
   version="1.1"
   id="svg2500"
   xmlns="http://www.w3.org/2000/svg"
   xmlns:svg="http://www.w3.org/2000/svg"
   xmlns:rdf="http://www.w3.org/1999/02/22-rdf-syntax-ns#"
   xmlns:cc="http://creativecommons.org/ns#"
   xmlns:dc="http://purl.org/dc/elements/1.1/">
  <title
     id="title2869">The Law Firm of Conrad Szewczyk &amp; Associates</title>
  <defs
     id="defs2497">
    <rect
       x="369.70358"
       y="437.70605"
       width="359.168"
       height="122.59601"
       id="rect7256" />
  </defs>
  <g
     id="g225">
    <g
       id="layer4"
       transform="matrix(1.2518121,-0.44083262,0.44083262,1.2518121,-128.46022,-40.569346)"
       style="display:inline">
      <path
         style="display:inline;fill:#ffffff;stroke:#000000;stroke-width:0.387292;stroke-dasharray:none;stroke-opacity:1"
         d="m 134.17393,82.328688 c 1.39663,1.144997 2.46565,2.258293 3.6056,4.024485 0.16701,0.35497 0.32862,0.716643 0.48354,1.072921 -0.33706,0.309401 -0.7948,0.549374 -1.16072,0.688824 0.10208,0.545518 0.19076,1.080265 0.25525,1.617631 0.54434,-0.169232 1.05663,-0.408384 1.49387,-0.718894 0.45593,1.381748 0.80029,2.806206 0.99549,4.265215 -0.63925,0.534303 -1.59783,0.724682 -2.32003,0.799471 -0.0322,0.547874 -0.0779,1.084976 -0.14229,1.618005 0.93888,-0.03961 1.84856,-0.224064 2.62309,-0.610978 0.0189,1.885531 -0.071,3.788386 -0.35692,5.357152 -1.05504,0.5862 -2.49724,0.49699 -3.52752,0.29757 -0.19467,0.51659 -0.40943,1.01702 -0.6497,1.50798 1.24964,0.29853 2.60862,0.36497 3.74553,0.0763 -0.50002,1.8159 -1.20794,3.51982 -2.08879,5.09573 -1.48062,0.51989 -3.28276,-0.11252 -4.47854,-0.74291 -0.35157,0.42353 -0.71654,0.83629 -1.09491,1.23828 1.33777,0.77766 3.01445,1.36437 4.44354,1.32167 -1.09441,1.58076 -2.36438,3.00932 -3.79506,4.25349 -1.76028,0.0964 -3.58164,-1.19144 -4.66559,-2.2395 -0.46274,0.30105 -0.93218,0.59671 -1.41095,0.8628 1.00475,1.30439 2.84201,2.40642 4.30835,2.77988 -1.7194,1.23273 -3.59939,2.226 -5.58884,2.94368 -1.7589,-0.46523 -3.1777,-2.15769 -4.00174,-3.49334 -0.53356,0.15582 -1.07514,0.29418 -1.61264,0.41373 0.68103,1.59585 2.0544,2.92075 3.31072,3.77639 -1.70266,0.42962 -3.46528,0.65658 -5.25558,0.67369 -0.38767,-0.19032 -0.76298,-0.49208 -1.13537,-0.87981 -0.69252,-0.74439 -1.3117,-1.82704 -1.74793,-3.02744 -1.84668,0.005 -3.66995,-0.22521 -5.40937,-0.69684 l 0.42418,-1.55689 c 1.44413,0.39973 2.97066,0.6009 4.52717,0.62754 -0.30402,-1.4472 -0.33534,-2.91789 -0.0572,-4.07356 0.2077,-0.90335 0.56927,-1.57264 1.1156,-2.0051 1.02425,0.19456 2.05417,0.27229 3.07094,0.22912 -0.59806,1.81431 -0.17593,3.84198 0.43665,5.4269 0.53211,-0.11285 1.06291,-0.23779 1.5857,-0.38022 -0.59785,-1.56206 -1.19225,-3.99306 -0.0825,-5.26354 1.1515,-0.21073 2.28723,-0.56654 3.37224,-1.0514 0.0498,1.58489 0.84509,3.16222 1.67768,4.29509 0.47338,-0.25939 0.93336,-0.52956 1.39071,-0.8239 -0.84573,-1.25378 -1.83954,-2.91352 -1.35518,-4.36683 0.90787,-0.53903 1.77434,-1.17752 2.58996,-1.89003 0.47224,1.30659 1.54651,2.46825 2.51701,3.22648 0.37429,-0.38318 0.73519,-0.77715 1.08807,-1.1886 -1.00781,-0.87652 -2.13859,-1.99534 -2.23996,-3.37891 0.73258,-0.80133 1.40756,-1.68207 2.01426,-2.628751 0.74719,0.909711 1.92742,1.582751 2.88137,1.963581 0.23619,-0.47217 0.45765,-0.96721 0.65362,-1.47171 -1.03162,-0.476342 -2.1786,-1.012335 -2.64482,-2.038194 0.55188,-1.056956 1.02203,-2.190664 1.39428,-3.381021 0.76049,0.41283 1.69327,0.666255 2.43302,0.775506 0.0644,-0.533025 0.11006,-1.070127 0.14229,-1.617999 -0.76918,-0.154989 -1.56661,-0.288558 -2.14153,-0.794946 0.24305,-1.08457 0.39615,-2.180783 0.45786,-3.245657 0.48728,0.09386 1.01506,0.109933 1.53626,0.06554 -0.0632,-0.525281 -0.15185,-1.060028 -0.24723,-1.600161 -0.44543,0.03249 -0.86917,-0.0169 -1.2662,-0.113221 -0.0633,-2.103336 -0.45375,-4.362599 -0.38495,-6.246034 z"
         id="path4592-0" />
      <path
         style="display:inline;fill:#ffffff;stroke:#000000;stroke-width:0.387292;stroke-dasharray:none;stroke-opacity:1"
         d="m 95.091507,68.565618 c -1.805914,0.01721 -3.336638,0.214988 -5.331747,0.877156 -0.352581,0.171993 -0.705162,0.352588 -1.049141,0.533176 0.06881,0.452333 0.275179,0.926175 0.472971,1.264136 -0.421375,0.361183 -0.825559,0.722366 -1.212534,1.100746 -0.318188,-0.472978 -0.567576,-0.980356 -0.71377,-1.496329 -1.221136,0.791159 -2.382077,1.685518 -3.448423,2.700267 0.163392,0.816957 0.79116,1.565978 1.307134,2.076796 -0.318184,0.447173 -0.619169,0.894353 -0.902955,1.350134 -0.706884,-0.619173 -1.300254,-1.332937 -1.661436,-2.119799 -1.1962,1.457631 -2.318443,2.996954 -3.078645,4.398684 0.454917,1.117942 1.634778,1.952102 2.562671,2.44227 -0.171991,0.524574 -0.318184,1.049148 -0.438578,1.582324 -1.160941,-0.550372 -2.261686,-1.350133 -2.96685,-2.287487 -0.748163,1.728513 -1.264137,3.500027 -1.565121,5.280137 0.828138,1.33293 2.628887,1.969299 3.9558,2.227288 0.0086,0.550373 0.0344,1.100746 0.0774,1.651118 -1.529863,-0.232191 -3.204198,-0.825559 -4.291184,-1.754311 -0.137593,1.917703 -0.04299,3.826803 0.292386,5.692909 1.311434,1.17814 3.537862,1.315734 5.039346,1.17814 0.171991,0.524577 0.352582,1.049152 0.558972,1.55653 -1.60038,0.386979 -3.722753,0.09459 -5.099543,-0.533177 0.567571,2.038099 1.410329,3.990204 2.511073,5.796114 1.662297,0.73956 3.828527,0.30958 5.307656,-0.21499 0.318181,0.45577 0.653565,0.90295 0.997545,1.33293 -1.530721,0.81696 -3.431226,0.98895 -4.946469,0.86856 1.057747,1.40172 2.289204,2.68306 3.673735,3.8182 0.421377,0.0946 0.902956,0.0946 1.436125,0.0258 1.006154,-0.1462 2.167091,-0.60197 3.259241,-1.26414 1.436121,1.16094 3.001245,2.12409 4.65237,2.84646 l 0.644971,-1.47913 c -1.375933,-0.59337 -2.691677,-1.39313 -3.92142,-2.34768 1.143753,-0.93735 2.089706,-2.0639 2.597077,-3.13884 0.404181,-0.83416 0.541771,-1.58232 0.386981,-2.26169 -0.920152,-0.490173 -1.771515,-1.074946 -2.536877,-1.745708 -0.67076,1.788708 -2.270281,3.104448 -3.740811,3.955798 -0.343979,-0.42138 -0.679364,-0.85135 -0.997545,-1.28993 1.444724,-0.84276 3.431227,-2.364884 3.362427,-4.050402 -0.765361,-0.885757 -1.427528,-1.87471 -1.969299,-2.932453 -1.031945,1.203938 -2.640068,1.934902 -3.998798,2.296084 -0.20639,-0.498776 -0.39558,-0.997551 -0.567573,-1.51352 1.444728,-0.447179 3.259239,-1.117949 3.792409,-2.554072 -0.369778,-0.988957 -0.644965,-2.029497 -0.834154,-3.095849 -1.186742,0.722366 -2.751865,0.95455 -3.983322,0.937354 -0.0516,-0.533169 -0.086,-1.066345 -0.103196,-1.608116 1.334653,-0.05161 2.916973,-0.214995 3.862928,-1.229744 -0.06881,-1.083541 -0.04297,-2.192888 0.07739,-3.31083 -1.152342,0.240786 -2.493876,0.02577 -3.475946,-0.275187 0.111794,-0.515972 0.249387,-1.040546 0.41278,-1.556519 1.102464,0.275186 2.332205,0.576171 3.338352,0.06881 0.232192,-1.169539 0.576171,-2.347679 1.031945,-3.508622 -0.851357,-0.15479 -1.737107,-0.541771 -2.382078,-0.920157 0.283788,-0.455775 0.584772,-0.902954 0.902954,-1.350127 0.696567,0.361183 1.401729,0.756759 2.16709,0.722359 0.490174,-0.997545 1.05775,-1.947798 1.676916,-2.816358 -0.438578,-0.232185 -0.859959,-0.550366 -1.238338,-0.911549 0.378379,-0.369785 0.782564,-0.730968 1.195343,-1.09215 0.326783,0.304425 0.687966,0.531455 1.057745,0.705169 1.367334,-1.599514 3.087258,-3.115616 4.213799,-4.626564 z"
         id="path4592" />
    </g>
    <g
       id="layer3"
       transform="matrix(1.2269117,0,0,1.2269117,-129.78346,-110.31013)"
       style="display:inline">
      <g
         stroke="none"
         stroke-width="1"
         fill="none"
         fill-rule="evenodd"
         id="g4492"
         transform="matrix(3.0448231,0,0,3.0448231,117.68246,89.962176)"
         style="display:inline;stroke:#000000;stroke-width:0.107074;stroke-dasharray:none;stroke-opacity:1">
        <path
           d="m 3.068,1.976 0.005,6.042 c 0,4.988 5.948,7.961 5.948,7.961 0,0 5.95,-2.807 5.95,-7.977 0,-5.17 10e-4,-6.026 10e-4,-6.026 0,0 -2.664,-1.94 -5.951,-1.94 -3.289,0 -5.953,1.94 -5.953,1.94 z m 10.979,6.255 c 0,3.944 -4.723,6.682 -5.045,6.837 v 0.015 L 8.987,15.076 8.972,15.083 V 15.068 C 8.65,14.913 3.927,12.175 3.927,8.231 L 3.923,2.567 c 0,0 2.258,-1.575 5.049,-1.588 V 0.978 c 0,0 0.01,0.001 0.015,0.001 L 9.002,0.978 v 0.001 c 2.791,0.013 5.049,1.588 5.049,1.588 z m -1.108,0.16 c 0,3.435 -3.671,5.462 -3.922,5.597 V 14 c 0,0 -0.01,-0.004 -0.011,-0.006 L 8.994,14 V 13.987 C 8.743,13.852 5.073,11.825 5.073,8.39 L 5.069,3.461 c 0,0 1.756,-1.37 3.925,-1.382 v 0 h 0.012 0.011 c 2.17,0.012 3.924,1.382 3.924,1.382 z"
           fill="#434343"
           class="si-glyph-fill"
           id="path4490"
           style="display:inline;fill:#000000;stroke:#000000;stroke-width:0.107074;stroke-dasharray:none;stroke-opacity:1" />
      </g>
    </g>
    <g
       id="layer2"
       style="display:inline"
       transform="translate(-97.537564,-74.671129)">
      <g
         id="g7200"
         transform="matrix(0.40615718,0,0,0.40615718,86.096944,79.136137)">
        <g
           id="g786"
           style="display:inline"
           transform="matrix(0.26458333,0,0,0.26458333,81.595106,-2.7911516)">
          <rect
             x="243.03"
             y="137.849"
             style="fill:#ffffff"
             width="10.938"
             height="202.92"
             id="rect780" />
          <path
             style="fill:#ffffff"
             d="m 268.273,366.721 c 0,-46.279 -19.353,-45.438 -19.353,-45.438 0,0 -19.353,-0.842 -19.353,45.438 0,0 5.049,17.67 -78.253,17.67 v 8.414 h 195.211 v -8.414 c -83.299,0 -78.252,-17.67 -78.252,-17.67 z"
             id="path782" />
          <path
             style="fill:#ffffff"
             d="m 248.5,103.353 c -4.628,0 -10.813,9.808 -10.813,31.73 0,21.922 22.467,21.922 22.467,0 0,-21.922 -7.026,-31.73 -11.654,-31.73 z"
             id="path784" />
        </g>
        <g
           id="g792"
           style="display:inline"
           transform="matrix(0.26458333,0,0,0.26458333,82.862171,0.75662994)">
          <path
             style="fill:#cccccc"
             d="m 369.95,135.295 c -1.718,-0.696 -3.685,0.13 -4.385,1.853 l -45.437,111.909 c -0.7,1.723 0.129,3.686 1.852,4.385 0.415,0.169 0.843,0.248 1.266,0.248 1.328,0 2.588,-0.793 3.119,-2.1 l 45.437,-111.91 c 0.7,-1.723 -0.129,-3.686 -1.852,-4.385 z"
             id="path788" />
          <path
             style="fill:#ffffff;stroke:#000000;stroke-opacity:1"
             d="M 431.964,249.057 386.527,137.148 c -0.7,-1.723 -2.667,-2.549 -4.385,-1.853 -1.723,0.699 -2.552,2.662 -1.853,4.385 l 45.438,111.91 c 0.53,1.307 1.79,2.1 3.119,2.1 0.422,0 0.851,-0.079 1.266,-0.248 1.722,-0.7 2.551,-2.663 1.852,-4.385 z"
             id="path790" />
        </g>
        <path
           style="display:inline;fill:#ffffff;stroke:#000000;stroke-width:0.264583;stroke-opacity:1"
           d="m 167.34892,66.431509 c 0,0 0.22278,10.5746 15.13893,10.5746 14.91588,0 14.91588,-10.5746 14.91588,-10.5746 z"
           id="path794" />
        <path
           style="display:inline;fill:#ffffff;stroke:#000000;stroke-width:0.264583;stroke-opacity:1"
           d="m 185.54299,29.105146 c 0.001,0.009 5.3e-4,0.01826 0.001,0.02752 -0.60219,-0.612775 -1.49807,-1.002771 -2.50005,-1.002771 -1.81345,0 -3.28374,1.273175 -3.28374,2.842948 0,1.570567 1.47029,2.843213 3.28374,2.843213 0.0439,0 0.0865,-0.0042 0.12991,-0.0056 -0.74321,0.44794 -1.61078,0.710671 -2.54158,0.710671 -1.37293,0 -4.28387,-1.744133 -9.20195,-1.744133 -3.89599,0 -11.79618,2.337593 -22.93038,2.337593 v 3.673472 c 8.92413,0 17.13654,-2.58524 21.07539,-2.70827 7.28715,-0.227543 9.49854,1.1131 11.65066,1.85499 2.15212,0.74216 6.12219,-1.10834 6.12219,-4.489712 -2.6e-4,-1.696244 -0.69056,-3.231092 -1.80551,-4.339961 z"
           id="path796" />
        <g
           id="g802"
           transform="matrix(0.26458333,0,0,0.26458333,82.862171,0.75662994)"
           style="display:inline">
          <path
             style="fill:#ffffff"
             d="M 176.031,249.057 130.594,137.148 c -0.7,-1.723 -2.667,-2.549 -4.385,-1.853 -1.723,0.699 -2.552,2.662 -1.853,4.385 l 45.438,111.91 c 0.531,1.307 1.79,2.1 3.119,2.1 0.422,0 0.851,-0.079 1.266,-0.248 1.722,-0.7 2.551,-2.663 1.852,-4.385 z"
             id="path798" />
          <path
             style="fill:#ffffff;stroke:#000000;stroke-opacity:1"
             d="m 114.018,135.295 c -1.718,-0.696 -3.685,0.13 -4.385,1.853 L 64.196,249.057 c -0.7,1.723 0.129,3.686 1.852,4.385 0.415,0.169 0.843,0.248 1.266,0.248 1.328,0 2.588,-0.793 3.119,-2.1 L 115.87,139.68 c 0.699,-1.723 -0.13,-3.686 -1.852,-4.385 z"
             id="path800" />
        </g>
        <path
           style="display:inline;fill:#ffffff;stroke:#000000;stroke-width:0.265;stroke-dasharray:none;stroke-opacity:1"
           d="m 99.596271,66.431509 c 0,0 0,10.5746 14.915889,10.5746 14.91615,0 15.13866,-10.5746 15.13866,-10.5746 z"
           id="path804" />
        <path
           style="display:inline;fill:#ffffff;stroke:#000000;stroke-width:0.264583;stroke-opacity:1"
           d="m 125.56936,32.777298 c -4.91808,0 -7.82876,1.744134 -9.20168,1.744134 -0.93107,0 -1.79864,-0.262467 -2.54159,-0.710671 0.0434,0.0013 0.086,0.0056 0.12991,0.0056 1.81346,0 3.28375,-1.27291 3.28375,-2.843212 0,-1.570038 -1.47056,-2.842948 -3.28375,-2.842948 -1.00197,0 -1.89812,0.389996 -2.50004,1.002771 7.9e-4,-0.0093 2.6e-4,-0.01852 10e-4,-0.02752 -1.11496,1.108604 -1.80552,2.643452 -1.80552,4.33996 0,3.381107 3.97034,5.231607 6.12246,4.489717 2.15212,-0.74189 4.36351,-2.082538 11.65066,-1.855 3.93885,0.12303 12.15126,2.70828 21.07539,2.70828 v -3.673476 c -11.13446,0 -19.03466,-2.337594 -22.93091,-2.337594 z"
           id="path806" />
      </g>
    </g>
    <g
       id="layer1"
       transform="translate(-97.537564,-74.671129)">
      <text
         xml:space="preserve"
         transform="matrix(0.26458333,0,0,0.26458333,-0.89001658,18.342682)"
         id="text7254"
         style="font-style:normal;font-variant:normal;font-weight:bold;font-stretch:normal;font-size:48px;line-height:0.8;font-family:'Courier New';-inkscape-font-specification:'Courier New Bold';white-space:pre;shape-inside:url(#rect7256);fill:#ffffff;fill-rule:evenodd;stroke:#000000;stroke-opacity:1;paint-order:fill markers stroke"
         x="309.96094"
         y="0"><tspan
           x="370.70508"
           y="468.99747"
           id="tspan344"><tspan
             style="font-family:Candara;-inkscape-font-specification:'Candara Bold';text-align:center;text-anchor:middle"
             id="tspan342">Conrad Szewczyk </tspan></tspan><tspan
           x="419.54883"
           y="508.70666"
           id="tspan348"><tspan
             style="font-family:Candara;-inkscape-font-specification:'Candara Bold';text-align:center;text-anchor:middle"
             id="tspan346">&amp; Associates</tspan></tspan></text>
    </g>
  </g>
  <metadata
     id="metadata2867">
    <rdf:RDF>
      <cc:Work
         rdf:about="">
        <dc:title>The Law Firm of Conrad Szewczyk &amp; Associates</dc:title>
        <dc:date>3.27.2024</dc:date>
        <dc:creator>
          <cc:Agent>
            <dc:title>Jerry Vrabel</dc:title>
          </cc:Agent>
        </dc:creator>
        <dc:rights>
          <cc:Agent>
            <dc:title>Reserved</dc:title>
          </cc:Agent>
        </dc:rights>
        <dc:subject>
          <rdf:Bag>
            <rdf:li>The Law Firm of Conrad Szewczyk &amp; Associates</rdf:li>
          </rdf:Bag>
        </dc:subject>
      </cc:Work>
    </rdf:RDF>
  </metadata>
</svg>
