<?xml version="1.0" encoding="UTF-8" standalone="no"?>

<svg
   width="91.92453mm"
   height="82.079506mm"
   viewBox="0 0 91.92453 82.079506"
   version="1.1"
   id="svg5"
   xml:space="preserve"
   inkscape:export-filename="csa-logo.png"
   inkscape:export-xdpi="96"
   inkscape:export-ydpi="96"
   inkscape:version="1.2.2 (732a01da63, 2022-12-09)"
   sodipodi:docname="csa-logo.svg"
   inkscape:dataloss="true"
   xmlns:inkscape="http://www.inkscape.org/namespaces/inkscape"
   xmlns:sodipodi="http://sodipodi.sourceforge.net/DTD/sodipodi-0.dtd"
   xmlns="http://www.w3.org/2000/svg"
   xmlns:svg="http://www.w3.org/2000/svg"><sodipodi:namedview
     id="namedview7"
     pagecolor="#ffffff"
     bordercolor="#000000"
     borderopacity="0.25"
     inkscape:showpageshadow="2"
     inkscape:pageopacity="0"
     inkscape:pagecheckerboard="0"
     inkscape:deskcolor="#d1d1d1"
     inkscape:document-units="mm"
     showgrid="false"
     inkscape:zoom="1.0440797"
     inkscape:cx="414.7193"
     inkscape:cy="565.09097"
     inkscape:window-width="1609"
     inkscape:window-height="1224"
     inkscape:window-x="4424"
     inkscape:window-y="80"
     inkscape:window-maximized="0"
     inkscape:current-layer="layer1" /><defs
     id="defs2"><linearGradient
       id="linearGradient9387"
       inkscape:swatch="solid"><stop
         style="stop-color:#ffffff;stop-opacity:1;"
         offset="0"
         id="stop9385" /></linearGradient><linearGradient
       id="linearGradient9323"
       inkscape:swatch="solid"><stop
         style="stop-color:#000000;stop-opacity:1;"
         offset="0"
         id="stop9321" /></linearGradient><rect
       x="369.70358"
       y="437.70605"
       width="359.168"
       height="122.59601"
       id="rect7256" /></defs><g
     inkscape:label="Layer 1"
     inkscape:groupmode="layer"
     id="layer1"
     transform="translate(-59.065645,-118.30355)"><g
       id="g6896"><g
         id="layer2"
         inkscape:label="Legal Badge"
         style="display:inline"
         transform="translate(-40.570957,64.896515)"><g
           id="g7200"
           transform="matrix(0.35583993,0,0,0.35583993,93.039883,52.204555)"><path
             style="display:inline;fill:#ffd700;fill-opacity:1;stroke:#000000;stroke-width:0.241393;stroke-dasharray:none;stroke-opacity:1"
             d="m 89.238447,21.878482 c -5.075056,0.04835 -9.376769,0.60417 -14.983516,2.465028 -0.990842,0.483345 -1.981684,0.990862 -2.948353,1.49836 0.193385,1.271171 0.773324,2.602785 1.329168,3.552543 -1.184168,1.015015 -2.320029,2.03003 -3.407525,3.093372 -0.894188,-1.329187 -1.595032,-2.755047 -2.005876,-4.20506 -3.431698,2.223356 -6.694236,4.736731 -9.690939,7.58843 0.459173,2.295856 2.22336,4.400794 3.673377,5.836323 -0.894177,1.256667 -1.74002,2.513355 -2.53753,3.794215 -1.986522,-1.740032 -3.654043,-3.745889 -4.669054,-5.957168 -3.361624,4.09631 -6.515411,8.422196 -8.65177,12.361411 1.278431,3.141698 4.594137,5.4859 7.201751,6.863394 -0.483338,1.474187 -0.894177,2.948373 -1.232514,4.446732 -3.262539,-1.546686 -6.355909,-3.794215 -8.337598,-6.428416 -2.102526,4.857557 -3.552544,9.83596 -4.398386,14.838516 2.327277,3.74587 7.387837,5.534228 11.116798,6.259244 0.02417,1.546686 0.09667,3.093372 0.217503,4.640058 -4.299301,-0.652517 -9.004607,-2.320029 -12.05931,-4.930057 -0.386671,5.389228 -0.120826,10.754283 0.821676,15.998511 3.685461,3.310871 9.942286,3.697543 14.161836,3.310871 0.483338,1.474194 0.990844,2.948381 1.570851,4.374241 -4.49747,1.08751 -10.461874,0.26582 -14.331003,-1.49836 1.595019,5.72757 3.96338,11.21347 7.05675,16.28853 4.671473,2.07836 10.759127,0.87002 14.915853,-0.60417 0.894169,1.28084 1.836684,2.53753 2.803353,3.74587 -4.301713,2.29588 -9.64261,2.7792 -13.900827,2.44088 2.972536,3.93919 6.433243,7.54008 10.324123,10.73011 1.184176,0.26584 2.537536,0.26584 4.035875,0.0724 2.827547,-0.41085 6.090071,-1.69169 9.15929,-3.55255 4.035868,3.26253 8.434254,5.96923 13.074311,7.99926 l 1.812532,-4.15671 c -3.866715,-1.66754 -7.564277,-3.91505 -11.020148,-6.59759 3.214218,-2.6342 5.872592,-5.80007 7.298432,-8.82093 1.135841,-2.3442 1.522513,-4.44673 1.087515,-6.35592 -2.585874,-1.37751 -4.978403,-3.02087 -7.129259,-4.90588 -1.885012,5.02673 -6.38007,8.72427 -10.51263,11.11678 -0.966669,-1.18417 -1.909185,-2.39251 -2.803354,-3.62502 4.060041,-2.36838 9.642614,-6.64592 9.449269,-11.38265 -2.150857,-2.489201 -4.011715,-5.268409 -5.534228,-8.240935 -2.900026,3.383371 -7.419258,5.437563 -11.237632,6.452575 -0.580008,-1.401684 -1.11168,-2.80337 -1.595021,-4.253372 4.060049,-1.256687 9.159284,-3.141718 10.657624,-7.177586 -1.039169,-2.77922 -1.812512,-5.7034 -2.344183,-8.700118 -3.335044,2.03003 -7.733433,2.682527 -11.19414,2.6342 -0.145,-1.498339 -0.241671,-2.996699 -0.290005,-4.519212 3.750712,-0.145038 8.197428,-0.60419 10.855802,-3.45589 -0.193385,-3.045025 -0.120768,-6.16257 0.217499,-9.304269 -3.238372,0.67667 -7.00842,0.07242 -9.768285,-0.773343 0.31417,-1.450013 0.700841,-2.924199 1.160014,-4.374213 3.098203,0.773343 6.554087,1.619186 9.381614,0.193385 0.652516,-3.286698 1.619185,-6.597569 2.900026,-9.860113 -2.392528,-0.434998 -4.88171,-1.522513 -6.694241,-2.585874 0.797516,-1.280841 1.643358,-2.537528 2.537528,-3.794196 1.95753,1.015015 3.939214,2.126683 6.090071,2.030011 1.377513,-2.803354 2.972545,-5.473805 4.712557,-7.914679 -1.232514,-0.652498 -2.416701,-1.546667 -3.480043,-2.561682 1.063342,-1.039188 2.199202,-2.054203 3.359217,-3.069218 0.918342,0.855512 1.933357,1.493524 2.972526,1.981703 3.842542,-4.495038 8.675945,-8.755667 11.841817,-13.001811 z"
             id="path4592"
             transform="matrix(1.2518121,-0.44083261,0.44083261,1.2518121,-30.922656,34.101783)" /><path
             style="display:inline;fill:#ffd700;fill-opacity:1;stroke:#000000;stroke-width:0.241393;stroke-dasharray:none;stroke-opacity:1"
             d="m 170.46093,50.715151 c 3.92489,3.21773 6.9291,6.346371 10.13263,11.309818 0.46934,0.997554 0.92353,2.013947 1.35889,3.015178 -0.94724,0.869496 -2.2336,1.543881 -3.26191,1.93577 0.28685,1.533043 0.53606,3.035818 0.71729,4.54595 1.52975,-0.475584 2.9694,-1.14766 4.19817,-2.020273 1.28128,3.88306 2.24901,7.886148 2.79757,11.98633 -1.79644,1.501529 -4.4903,2.03654 -6.51986,2.246717 -0.0906,1.539663 -0.21882,3.049056 -0.39988,4.547001 2.63849,-0.11131 5.19493,-0.629676 7.37155,-1.717 0.0531,5.298816 -0.19967,10.646321 -1.00305,15.054948 -2.96493,1.64737 -7.01787,1.39666 -9.91322,0.83626 -0.54705,1.45175 -1.1506,2.85807 -1.8258,4.2378 3.51178,0.83893 7.33087,1.02566 10.52588,0.21446 -1.40519,5.10313 -3.39462,9.89158 -5.87004,14.32027 -4.16091,1.46102 -9.22539,-0.31621 -12.58581,-2.08776 -0.988,1.19024 -2.01366,2.3502 -3.07699,3.47988 3.75948,2.18543 8.47137,3.83424 12.48748,3.71423 -3.07557,4.44232 -6.64452,8.45694 -10.66509,11.95338 -4.94683,0.27096 -10.0653,-3.34823 -13.11147,-6.29357 -1.30042,0.84603 -2.61967,1.67692 -3.96514,2.42471 2.82361,3.66567 7.98677,6.76262 12.10757,7.81214 -4.83197,3.46426 -10.11521,6.25561 -15.70605,8.27248 -4.94296,-1.30742 -8.93015,-6.06367 -11.24591,-9.81718 -1.49944,0.43791 -3.02142,0.82672 -4.53194,1.1627 1.91388,4.48474 5.7734,8.20804 9.30398,10.61259 -4.78492,1.20735 -9.73831,1.84517 -14.76951,1.89324 -1.08945,-0.53483 -2.14417,-1.38285 -3.19068,-2.47247 -1.94617,-2.09194 -3.6862,-5.13446 -4.91214,-8.50788 -5.18962,0.0137 -10.31347,-0.63289 -15.201673,-1.95829 l 1.192043,-4.37522 c 4.05836,1.12332 8.34831,1.68866 12.72249,1.76352 -0.85436,-4.06698 -0.94239,-8.20001 -0.16072,-11.44771 0.58368,-2.53865 1.59979,-4.41952 3.13511,-5.63486 2.87842,0.54678 5.77274,0.76521 8.63014,0.64389 -1.68071,5.09867 -0.49443,10.79693 1.22708,15.25098 1.49536,-0.31715 2.98705,-0.66827 4.45621,-1.06852 -1.68011,-4.38981 -3.3505,-11.22152 -0.23177,-14.79188 3.236,-0.5922 6.42769,-1.59212 9.47684,-2.95471 0.14007,4.45395 2.37492,8.88663 4.71471,12.07028 1.33032,-0.72895 2.62297,-1.48819 3.90824,-2.31537 -2.37671,-3.52342 -5.16957,-8.1877 -3.80839,-12.27187 2.55133,-1.51481 4.98633,-3.30915 7.27844,-5.31146 1.3271,3.67183 4.34607,6.93639 7.07342,9.06722 1.05186,-1.07685 2.06608,-2.18401 3.05776,-3.34027 -2.83219,-2.46325 -6.00998,-5.60741 -6.29486,-9.4956 2.05874,-2.25193 3.95561,-4.72705 5.66058,-7.387451 2.09979,2.556531 5.41655,4.447941 8.09738,5.518151 0.66374,-1.32691 1.28612,-2.71809 1.83685,-4.13586 -2.89912,-1.338651 -6.12243,-2.844927 -7.43262,-5.727847 1.55093,-2.970314 2.87217,-6.15632 3.91828,-9.501524 2.13716,1.160157 4.75852,1.872346 6.8374,2.179367 0.18104,-1.497934 0.30929,-3.007326 0.39986,-4.546986 -2.16159,-0.435556 -4.40256,-0.810921 -6.01823,-2.233997 0.68304,-3.047915 1.11329,-6.128552 1.28669,-9.121116 1.3694,0.263782 2.85258,0.308938 4.31729,0.184193 -0.17754,-1.476173 -0.42675,-2.978947 -0.69478,-4.496857 -1.25177,0.0913 -2.44259,-0.04749 -3.55835,-0.318179 -0.17803,-5.910906 -1.27516,-12.260004 -1.08179,-17.552933 z"
             id="path4592-0"
             transform="matrix(1.2518121,-0.44083261,0.44083261,1.2518121,-30.922656,34.101783)" /><g
             stroke="none"
             stroke-width="1"
             fill="none"
             fill-rule="evenodd"
             id="g4492"
             transform="matrix(8.5567216,0,0,8.5567216,70.67618,3.0712151)"
             style="display:inline"><path
               d="m 3.068,1.976 0.005,6.042 c 0,4.988 5.948,7.961 5.948,7.961 0,0 5.95,-2.807 5.95,-7.977 0,-5.17 10e-4,-6.026 10e-4,-6.026 0,0 -2.664,-1.94 -5.951,-1.94 -3.289,0 -5.953,1.94 -5.953,1.94 z m 10.979,6.255 c 0,3.944 -4.723,6.682 -5.045,6.837 v 0.015 L 8.987,15.076 8.972,15.083 V 15.068 C 8.65,14.913 3.927,12.175 3.927,8.231 L 3.923,2.567 c 0,0 2.258,-1.575 5.049,-1.588 V 0.978 c 0,0 0.01,0.001 0.015,0.001 L 9.002,0.978 v 0.001 c 2.791,0.013 5.049,1.588 5.049,1.588 z m -1.108,0.16 c 0,3.435 -3.671,5.462 -3.922,5.597 V 14 c 0,0 -0.01,-0.004 -0.011,-0.006 L 8.994,14 V 13.987 C 8.743,13.852 5.073,11.825 5.073,8.39 L 5.069,3.461 c 0,0 1.756,-1.37 3.925,-1.382 v 0 h 0.012 0.011 c 2.17,0.012 3.924,1.382 3.924,1.382 z"
               fill="#434343"
               class="si-glyph-fill"
               id="path4490"
               style="display:inline;fill:#000000" /></g><g
             id="g786"
             style="display:inline"
             transform="matrix(0.26458333,0,0,0.26458333,81.595106,-2.7911516)"><rect
               x="243.03"
               y="137.849"
               style="fill:#ffffff"
               width="10.938"
               height="202.92"
               id="rect780" /><path
               style="fill:#ffffff"
               d="m 268.273,366.721 c 0,-46.279 -19.353,-45.438 -19.353,-45.438 0,0 -19.353,-0.842 -19.353,45.438 0,0 5.049,17.67 -78.253,17.67 v 8.414 h 195.211 v -8.414 c -83.299,0 -78.252,-17.67 -78.252,-17.67 z"
               id="path782" /><path
               style="fill:#ffffff"
               d="m 248.5,103.353 c -4.628,0 -10.813,9.808 -10.813,31.73 0,21.922 22.467,21.922 22.467,0 0,-21.922 -7.026,-31.73 -11.654,-31.73 z"
               id="path784" /></g><g
             id="g792"
             style="display:inline"
             transform="matrix(0.26458333,0,0,0.26458333,82.862171,0.75662994)"><path
               style="fill:#cccccc"
               d="m 369.95,135.295 c -1.718,-0.696 -3.685,0.13 -4.385,1.853 l -45.437,111.909 c -0.7,1.723 0.129,3.686 1.852,4.385 0.415,0.169 0.843,0.248 1.266,0.248 1.328,0 2.588,-0.793 3.119,-2.1 l 45.437,-111.91 c 0.7,-1.723 -0.129,-3.686 -1.852,-4.385 z"
               id="path788" /><path
               style="fill:#ffffff;stroke:#000000;stroke-opacity:1"
               d="M 431.964,249.057 386.527,137.148 c -0.7,-1.723 -2.667,-2.549 -4.385,-1.853 -1.723,0.699 -2.552,2.662 -1.853,4.385 l 45.438,111.91 c 0.53,1.307 1.79,2.1 3.119,2.1 0.422,0 0.851,-0.079 1.266,-0.248 1.722,-0.7 2.551,-2.663 1.852,-4.385 z"
               id="path790" /></g><path
             style="display:inline;fill:#ffffff;stroke:#000000;stroke-width:0.264583;stroke-opacity:1"
             d="m 167.34892,66.431509 c 0,0 0.22278,10.5746 15.13893,10.5746 14.91588,0 14.91588,-10.5746 14.91588,-10.5746 z"
             id="path794" /><path
             style="display:inline;fill:#ffffff;stroke:#000000;stroke-width:0.264583;stroke-opacity:1"
             d="m 185.54299,29.105146 c 0.001,0.009 5.3e-4,0.01826 0.001,0.02752 -0.60219,-0.612775 -1.49807,-1.002771 -2.50005,-1.002771 -1.81345,0 -3.28374,1.273175 -3.28374,2.842948 0,1.570567 1.47029,2.843213 3.28374,2.843213 0.0439,0 0.0865,-0.0042 0.12991,-0.0056 -0.74321,0.44794 -1.61078,0.710671 -2.54158,0.710671 -1.37293,0 -4.28387,-1.744133 -9.20195,-1.744133 -3.89599,0 -11.79618,2.337593 -22.93038,2.337593 v 3.673472 c 8.92413,0 17.13654,-2.58524 21.07539,-2.70827 7.28715,-0.227543 9.49854,1.1131 11.65066,1.85499 2.15212,0.74216 6.12219,-1.10834 6.12219,-4.489712 -2.6e-4,-1.696244 -0.69056,-3.231092 -1.80551,-4.339961 z"
             id="path796" /><g
             id="g802"
             transform="matrix(0.26458333,0,0,0.26458333,82.862171,0.75662994)"><path
               style="fill:#ffffff"
               d="M 176.031,249.057 130.594,137.148 c -0.7,-1.723 -2.667,-2.549 -4.385,-1.853 -1.723,0.699 -2.552,2.662 -1.853,4.385 l 45.438,111.91 c 0.531,1.307 1.79,2.1 3.119,2.1 0.422,0 0.851,-0.079 1.266,-0.248 1.722,-0.7 2.551,-2.663 1.852,-4.385 z"
               id="path798" /><path
               style="fill:#ffffff;stroke:#000000;stroke-opacity:1"
               d="m 114.018,135.295 c -1.718,-0.696 -3.685,0.13 -4.385,1.853 L 64.196,249.057 c -0.7,1.723 0.129,3.686 1.852,4.385 0.415,0.169 0.843,0.248 1.266,0.248 1.328,0 2.588,-0.793 3.119,-2.1 L 115.87,139.68 c 0.699,-1.723 -0.13,-3.686 -1.852,-4.385 z"
               id="path800" /></g><path
             style="display:inline;fill:#ffffff;stroke:#000000;stroke-width:0.265;stroke-dasharray:none;stroke-opacity:1"
             d="m 99.596271,66.431509 c 0,0 0,10.5746 14.915889,10.5746 14.91615,0 15.13866,-10.5746 15.13866,-10.5746 z"
             id="path804" /><path
             style="display:inline;fill:#ffffff;stroke:#000000;stroke-width:0.264583;stroke-opacity:1"
             d="m 125.56936,32.777298 c -4.91808,0 -7.82876,1.744134 -9.20168,1.744134 -0.93107,0 -1.79864,-0.262467 -2.54159,-0.710671 0.0434,0.0013 0.086,0.0056 0.12991,0.0056 1.81346,0 3.28375,-1.27291 3.28375,-2.843212 0,-1.570038 -1.47056,-2.842948 -3.28375,-2.842948 -1.00197,0 -1.89812,0.389996 -2.50004,1.002771 7.9e-4,-0.0093 2.6e-4,-0.01852 10e-4,-0.02752 -1.11496,1.108604 -1.80552,2.643452 -1.80552,4.33996 0,3.381107 3.97034,5.231607 6.12246,4.489717 2.15212,-0.74189 4.36351,-2.082538 11.65066,-1.855 3.93885,0.12303 12.15126,2.70828 21.07539,2.70828 v -3.673476 c -11.13446,0 -19.03466,-2.337594 -22.93091,-2.337594 z"
             id="path806" /></g></g><g
         inkscape:label="Conrad Szewczyk"
         id="layer1-1"
         transform="translate(-40.570958,62.838515)"
         style="display:inline"><text
           xml:space="preserve"
           transform="scale(0.26458333)"
           id="text7254"
           style="font-style:normal;font-variant:normal;font-weight:bold;font-stretch:normal;font-size:48px;line-height:0.9;font-family:'Courier New';-inkscape-font-specification:'Courier New Bold';white-space:pre;shape-inside:url(#rect7256);display:inline;fill:#ffffff;fill-opacity:1;fill-rule:evenodd;stroke:#000000;stroke-width:1.00157;stroke-dasharray:none;stroke-dashoffset:0;stroke-opacity:1;paint-order:fill markers stroke"
           x="132.28125"
           y="0"><tspan
             x="575.3457"
             y="473.41171"
             id="tspan9506"><tspan
               style="font-family:'Mongolian Baiti';-inkscape-font-specification:'Mongolian Baiti Bold';text-align:center;text-anchor:middle"
               id="tspan9504">Conrad Szewczyk </tspan></tspan><tspan
             x="550.29883"
             y="518.62595"
             id="tspan9510"><tspan
               style="font-family:'Mongolian Baiti';-inkscape-font-specification:'Mongolian Baiti Bold';text-align:center;text-anchor:middle"
               id="tspan9508">&amp; Associates</tspan></tspan></text></g></g></g></svg>
